#tb 0: 1/14587
0,          0,          0,        0,   174243, 0xa40491e1
0,       1000,       1000,        0,   174243, 0xa12cbb56
0,       2000,       2000,        0,   174243, 0xa12cbb56
0,       3000,       3000,        0,   174243, 0xa12cbb56
0,       4000,       4000,        0,   174243, 0xa12cbb56
0,       5000,       5000,        0,   174243, 0xa12cbb56
0,       6000,       6000,        0,   174243, 0xa12cbb56
0,       7000,       7000,        0,   174243, 0xa12cbb56
0,       8000,       8000,        0,   174243, 0xa12cbb56
0,       9000,       9000,        0,   174243, 0x4e7b7299
0,      10000,      10000,        0,   174243, 0x31573b99
0,      11000,      11000,        0,   174243, 0x013397b6
0,      12000,      12000,        0,   174243, 0xdd988ab8
0,      13000,      13000,        0,   174243, 0xd6d96b1e
0,      14000,      14000,        0,   174243, 0xd6d96b1e
0,      15000,      15000,        0,   174243, 0xd6d96b1e
0,      16000,      16000,        0,   174243, 0x111627d3
0,      17000,      17000,        0,   174243, 0x284d9ab7
0,      18000,      18000,        0,   174243, 0xa348c492
0,      19000,      19000,        0,   174243, 0xa348c492
0,      20000,      20000,        0,   174243, 0xa348c492
0,      21000,      21000,        0,   174243, 0xa348c492
0,      22000,      22000,        0,   174243, 0x2d22c3b8
0,      23000,      23000,        0,   174243, 0x2d22c3b8
0,      24000,      24000,        0,   174243, 0x2d22c3b8
0,      25000,      25000,        0,   174243, 0x2d22c3b8
0,      26000,      26000,        0,   174243, 0xa6d7c890
0,      27000,      27000,        0,   174243, 0x8068bfbb
0,      28000,      28000,        0,   174243, 0x420ae647
0,      29000,      29000,        0,   174243, 0xc5467756
0,      30000,      30000,        0,   174243, 0x238a13dd
0,      31000,      31000,        0,   174243, 0x5bab75dc
0,      32000,      32000,        0,   174243, 0x14d7f61f
0,      33000,      33000,        0,   174243, 0x2e1d334f
0,      34000,      34000,        0,   174243, 0xeade7dc0
0,      35000,      35000,        0,   174243, 0xeade7dc0
0,      36000,      36000,        0,   174243, 0xeade7dc0
0,      37000,      37000,        0,   174243, 0xeade7dc0
0,      38000,      38000,        0,   174243, 0x088c7ef9
0,      39000,      39000,        0,   174243, 0x70a3554e
0,      40000,      40000,        0,   174243, 0x0753d1d4
0,      41000,      41000,        0,   174243, 0x8266bd6d
0,      42000,      42000,        0,   174243, 0x4ce3cda9
0,      43000,      43000,        0,   174243, 0x4ce3cda9
0,      44000,      44000,        0,   174243, 0x4ce3cda9
0,      45000,      45000,        0,   174243, 0x4ce3cda9
0,      46000,      46000,        0,   174243, 0xe5f7cd98
0,      47000,      47000,        0,   174243, 0xe5f7cd98
0,      48000,      48000,        0,   174243, 0xe5f7cd98
0,      49000,      49000,        0,   174243, 0xe5f7cd98
0,      50000,      50000,        0,   174243, 0x78c5cdb7
0,      51000,      51000,        0,   174243, 0x78c5cdb7
0,      52000,      52000,        0,   174243, 0x78c5cdb7
0,      53000,      53000,        0,   174243, 0xce7ccd92
0,      54000,      54000,        0,   174243, 0xce7ccd92
0,      55000,      55000,        0,   174243, 0xce7ccd92
0,      56000,      56000,        0,   174243, 0xce7ccd92
